<?xml version="1.0" encoding="UTF-8" standalone="no"?>
<!-- Created with Inkscape (http://www.inkscape.org/) -->

<svg
   xmlns:dc="http://purl.org/dc/elements/1.1/"
   xmlns:cc="http://creativecommons.org/ns#"
   xmlns:rdf="http://www.w3.org/1999/02/22-rdf-syntax-ns#"
   xmlns:svg="http://www.w3.org/2000/svg"
   xmlns="http://www.w3.org/2000/svg"
   xmlns:xlink="http://www.w3.org/1999/xlink"
   version="1.0"
   width="348.39078"
   height="175.85721"
   id="svg2">
  <metadata
     id="metadata16">
    <rdf:RDF>
      <cc:Work
         rdf:about="">
        <dc:format>image/svg+xml</dc:format>
        <dc:type
           rdf:resource="http://purl.org/dc/dcmitype/StillImage" />
        <dc:title></dc:title>
      </cc:Work>
    </rdf:RDF>
  </metadata>
  <defs
     id="defs5">
    <linearGradient
       id="linearGradient3212">
      <stop
         id="stop3214"
         style="stop-color:#c83a37;stop-opacity:1"
         offset="0" />
      <stop
         id="stop3220"
         style="stop-color:#fa3436;stop-opacity:1"
         offset="0.49541286" />
      <stop
         id="stop3216"
         style="stop-color:#c83a37;stop-opacity:1"
         offset="1" />
    </linearGradient>
    <linearGradient
       x1="54.633545"
       y1="97.358665"
       x2="182.19685"
       y2="97.358665"
       id="linearGradient3270"
       xlink:href="#linearGradient3212"
       gradientUnits="userSpaceOnUse" />
    <linearGradient
       x1="54.633545"
       y1="97.358665"
       x2="182.19685"
       y2="97.358665"
       id="linearGradient3277"
       xlink:href="#linearGradient3212"
       gradientUnits="userSpaceOnUse" />
  </defs>
  <g
     transform="translate(-27.0938,-9.97012)"
     id="g3272">
    <path
       d="m 148,185.2663 c -39.47817,-1.41938 -74.304666,-7.06428 -92,-14.91196 -9.865971,-4.37544 -12.515679,-5.97295 -17.572039,-10.59417 -8.271282,-7.55949 -10.716096,-12.38968 -11.220422,-22.16806 -0.33147,-6.42687 0.0134,-9.31286 1.675889,-14.02427 C 36.227411,102.75534 59.652011,82.429787 93,67.93381 c 36.03304,-15.663138 69.04504,-22.356217 97.75941,-19.820413 19.81361,1.749766 35.14899,6.396692 37.39779,11.332282 1.64679,3.614304 0.37039,4.263015 -2.35592,1.19736 -1.59662,-1.795358 -4.93716,-3.339201 -10.90954,-5.041891 C 178.95912,45.356977 130.85132,52.767729 85.698172,75.502732 50.751069,93.098904 30.100887,115.94123 30.021092,137.09028 c -0.02759,7.3124 4.428598,16.51854 10.304424,21.28815 11.836505,9.60811 33.74223,16.44399 66.174484,20.65036 11.00174,1.42689 65.29221,3.92183 86,3.95216 27.66971,0.0405 64.93197,-3.36821 87.60612,-8.01419 39.58784,-8.11162 68.04011,-23.90786 82.61567,-45.86687 C 374.62968,111.1599 374.94052,89.708556 363.51297,74.5 344.72328,49.493402 289.6213,24.538844 235.31971,16.443896 197.21152,10.762961 146.41333,14.510041 105,26.056806 c -4.125,1.150123 -9.075,2.452691 -11,2.894596 -6.748173,1.54912 -13.518411,3.322741 -15.5,4.060585 -1.1,0.409585 -4.25,1.182689 -7,1.71801 -2.75,0.53532 -5.9,1.307515 -7,1.715988 -1.598048,0.593419 -1.698536,0.525957 -0.5,-0.335669 1.280142,-0.920293 14.063101,-5.282215 31,-10.578115 5.26797,-1.647211 19.75659,-5.331021 25.5,-6.483516 2.2,-0.44146 8.5,-1.720849 14,-2.843087 61.99648,-12.6499611 122.60894,-6.021455 179.23767,19.601219 22.59488,10.223454 34.05572,17.589222 46.56838,29.929033 11.76821,11.605644 16.80991,25.344714 14.71664,40.10417 -1.92199,13.55177 -7.12381,23.78248 -18.0301,35.46084 -14.69869,15.73921 -36.78046,26.94702 -67.99259,34.51029 -31.8901,7.72756 -59.25075,10.3779 -103,9.97729 -17.325,-0.15864 -34.425,-0.3936 -38,-0.52214 z"
       id="path3174"
       style="fill:#c93441;fill-opacity:1" />
    <path
       d="m 135.875,129.15625 c -0.4706,0.0144 -0.85852,0.19992 -1.15625,0.53125 -0.29773,0.33136 -0.45915,0.71211 -0.46875,1.1875 l 0,16.375 c 0,0.66389 0.14937,1.16026 0.4375,1.5 0.28812,0.33975 0.73625,0.53005 1.3125,0.53125 l 9.03125,0 c 0.66388,0.001 1.16024,-0.17706 1.5,-0.5 0.33973,-0.32294 0.53004,-0.80726 0.53125,-1.46875 -0.004,-0.84036 -0.21083,-1.39213 -0.625,-1.65625 -0.4142,-0.26411 -1.03097,-0.39901 -1.8125,-0.375 -2.42627,0.0468 -3.96595,-0.0857 -4.65625,-0.40625 -0.6903,-0.32055 -1.01794,-1.094 -0.9375,-2.34375 l 0,-11.65625 c -0.007,-0.52581 -0.15903,-0.94025 -0.46875,-1.25 -0.30975,-0.30972 -0.72418,-0.46153 -1.25,-0.46875 l -1.4375,0 z m 21,0.3125 c -1.57084,-0.004 -3.09414,0.3571 -4.5625,1.09375 -1.46837,0.7367 -2.66885,1.88205 -3.625,3.40625 -0.95614,1.52424 -1.46585,3.4538 -1.5,5.8125 0.012,2.7396 0.86253,5.08401 2.53125,7.03125 1.66872,1.94725 4.09987,2.97366 7.28125,3.0625 2.97968,-0.054 5.33857,-1.01299 7.09375,-2.875 1.75516,-1.86202 2.64665,-4.29078 2.6875,-7.3125 -0.01,-2.74438 -0.85054,-5.11287 -2.53125,-7.09375 -1.68075,-1.98083 -4.13841,-3.03134 -7.375,-3.125 z m -43.47617,0.21875 c -0.54834,0.0522 -0.95289,0.20702 -1.25,0.4375 -0.39619,0.30736 -0.69737,0.823 -0.90625,1.5625 l -2.71875,9 c -0.1981,0.62428 -0.40531,1.0628 -0.625,1.3125 -0.2197,0.24971 -0.46549,0.35336 -0.75,0.34375 -0.18489,-0.012 -0.39447,-0.0795 -0.59375,-0.25 -0.19929,-0.17046 -0.33663,-0.34637 -0.40625,-0.53125 -0.0416,-0.11702 -0.12515,-0.3988 -0.25,-0.8125 -0.12487,-0.41369 -0.38108,-1.30698 -0.78125,-2.6875 -0.40018,-1.3805 -1.03868,-3.57624 -1.90625,-6.59375 -0.17408,-0.57623 -0.44394,-1.02436 -0.8125,-1.3125 -0.36856,-0.28811 -0.82637,-0.40623 -1.375,-0.40625 l -1.156249,0 c -0.476609,0.005 -0.826035,0.1109 -1.09375,0.375 -0.267717,0.26413 -0.347206,0.65922 -0.21875,1.125 l 5.406249,16.28125 c 0.27012,0.78755 0.62671,1.32484 1.0625,1.59375 0.43579,0.26892 0.90318,0.3942 1.375,0.375 l 1.59375,0 c 0.54742,-0.002 1.00043,-0.16381 1.375,-0.46875 0.37455,-0.30492 0.6733,-0.73385 0.875,-1.3125 l 5.46875,-15.84375 c 0.21969,-0.54502 0.27265,-1.05579 0.125,-1.5 -0.14768,-0.44418 -0.7669,-0.66107 -1.84375,-0.6875 -0.21069,-0.002 -0.41097,-0.0174 -0.59375,0 z m 56.63242,0.0937 c -0.4382,2e-5 -0.80439,0.14695 -1.0625,0.40625 -0.25812,0.25933 -0.369,0.63765 -0.375,1.15625 l 0,16.25 c -0.0168,0.62667 0.15908,1.07724 0.53125,1.34375 0.37217,0.26652 1.03718,0.41345 2,0.40625 0.65188,-0.0264 1.08803,-0.23356 1.34375,-0.5625 0.25571,-0.32895 0.3858,-0.62296 0.375,-0.9375 l 0,-1.90625 c -0.0696,-1.21852 0.0942,-2.08589 0.5,-2.5625 0.40577,-0.47659 1.47075,-0.7079 3.1875,-0.6875 2.7624,0.0336 4.92365,-0.46998 6.46875,-1.53125 1.54505,-1.06125 2.31852,-2.87798 2.34375,-5.4375 -0.024,-1.81038 -0.60476,-3.21997 -1.78125,-4.28125 -1.17653,-1.06124 -2.80288,-1.63222 -4.84375,-1.65625 l -8.6875,0 z M 83.875,129.8125 c -0.548638,0.002 -0.967879,0.18068 -1.25,0.5 -0.282125,0.31936 -0.436301,0.76756 -0.4375,1.375 l 0,15.65625 c -0.0012,0.71431 0.143372,1.21311 0.4375,1.53125 0.294128,0.31815 0.739886,0.47476 1.34375,0.46875 l 11.03125,0 c 0.721502,-0.001 1.256425,-0.12169 1.625,-0.375 0.368542,-0.2533 0.561284,-0.60274 0.5625,-1.09375 -2e-5,-1.03725 -0.597515,-1.56249 -1.75,-1.5625 l -6.5625,0 c -0.783948,0.001 -1.381518,-0.18193 -1.8125,-0.5625 -0.430991,-0.38056 -0.650253,-0.97326 -0.65625,-1.75 l 0,-0.8125 c -0.0012,-0.89198 0.181929,-1.5618 0.5625,-2 0.380559,-0.43818 0.973256,-0.65744 1.75,-0.65625 l 5.21875,0 c 0.576236,-0.001 1.024361,-0.12168 1.3125,-0.375 0.288111,-0.2533 0.437486,-0.63398 0.4375,-1.125 -1.6e-5,-1.03723 -0.597512,-1.53124 -1.75,-1.53125 l -5.21875,0 c -0.749133,-0.008 -1.312943,-0.23725 -1.6875,-0.65625 -0.37457,-0.41896 -0.562507,-0.99002 -0.5625,-1.71875 0.0144,-0.74911 0.207213,-1.31292 0.625,-1.6875 0.417778,-0.37455 0.976711,-0.56249 1.625,-0.5625 l 5.875,0 c 0.576238,-0.001 0.99311,-0.12167 1.28125,-0.375 0.288113,-0.2533 0.437484,-0.63397 0.4375,-1.125 -1.5e-5,-1.03724 -0.566264,-1.56248 -1.71875,-1.5625 l -10.71875,0 z m 35.1875,0 c -0.54865,0.002 -0.96788,0.18068 -1.25,0.5 -0.28212,0.31936 -0.43631,0.76756 -0.4375,1.375 l 0,15.65625 c -0.001,0.71431 0.14337,1.21311 0.4375,1.53125 0.29412,0.31815 0.73988,0.47476 1.34375,0.46875 l 11,0 c 0.7215,-0.001 1.28768,-0.12169 1.65625,-0.375 0.36855,-0.2533 0.56128,-0.60274 0.5625,-1.09375 -3e-5,-1.03725 -0.59752,-1.56249 -1.75,-1.5625 l -6.5625,0 c -0.78395,0.001 -1.38153,-0.18193 -1.8125,-0.5625 -0.431,-0.38056 -0.65026,-0.97326 -0.65625,-1.75 l 0,-0.8125 c -0.001,-0.89198 0.18193,-1.5618 0.5625,-2 0.38056,-0.43818 0.97326,-0.65744 1.75,-0.65625 l 5.21875,0 c 0.57624,-0.001 1.02435,-0.12168 1.3125,-0.375 0.2881,-0.2533 0.43749,-0.63398 0.4375,-1.125 -1e-5,-1.03723 -0.59751,-1.53124 -1.75,-1.53125 l -5.21875,0 c -0.74914,-0.008 -1.31295,-0.23725 -1.6875,-0.65625 -0.37457,-0.41896 -0.56251,-0.99002 -0.5625,-1.71875 0.0144,-0.74911 0.20721,-1.31292 0.625,-1.6875 0.41777,-0.37455 0.97671,-0.56249 1.625,-0.5625 l 5.875,0 c 0.57623,-0.001 0.99311,-0.12167 1.28125,-0.375 0.28811,-0.2533 0.43748,-0.63397 0.4375,-1.125 -2e-5,-1.03724 -0.56627,-1.56248 -1.71875,-1.5625 l -10.71875,0 z m 91.9375,0 c -0.54864,0.002 -0.96788,0.18068 -1.25,0.5 -0.28212,0.31936 -0.43631,0.76756 -0.4375,1.375 l 0,15.65625 c -0.001,0.71431 0.14337,1.21311 0.4375,1.53125 0.29411,0.31815 0.73988,0.47476 1.34375,0.46875 l 11.03125,0 c 0.7215,-0.001 1.25642,-0.12169 1.625,-0.375 0.36854,-0.2533 0.56128,-0.60274 0.5625,-1.09375 -3e-5,-1.03725 -0.59752,-1.56249 -1.75,-1.5625 l -6.5625,0 c -0.78395,0.001 -1.38152,-0.18193 -1.8125,-0.5625 -0.43099,-0.38056 -0.65026,-0.97326 -0.65625,-1.75 l 0,-0.8125 c -0.001,-0.89198 0.18193,-1.5618 0.5625,-2 0.38057,-0.43818 0.97326,-0.65744 1.75,-0.65625 l 5.21875,0 c 0.57624,-0.001 1.02435,-0.12168 1.3125,-0.375 0.2881,-0.2533 0.43749,-0.63398 0.4375,-1.125 -1e-5,-1.03723 -0.59751,-1.53124 -1.75,-1.53125 l -5.21875,0 c -0.74914,-0.008 -1.31295,-0.23725 -1.6875,-0.65625 -0.37457,-0.41896 -0.5625,-0.99002 -0.5625,-1.71875 0.0144,-0.74911 0.20721,-1.31292 0.625,-1.6875 0.41777,-0.37455 0.97671,-0.56249 1.625,-0.5625 l 5.875,0 c 0.57623,-0.001 0.99311,-0.12167 1.28125,-0.375 0.28811,-0.2533 0.43748,-0.63397 0.4375,-1.125 -2e-5,-1.03724 -0.56627,-1.56248 -1.71875,-1.5625 l -10.71875,0 z m 34.53125,0.0625 c -0.66389,0.001 -1.16026,0.15783 -1.5,0.46875 -0.33976,0.31094 -0.49881,0.76875 -0.5,1.375 -0.0312,0.62909 0.10855,1.09169 0.4375,1.375 0.32894,0.28334 1.03008,0.41107 2.09375,0.40625 1.09606,0.007 1.81894,0.22884 2.1875,0.625 0.36856,0.39619 0.55886,0.92631 0.53125,1.625 l 0,12.0625 c 0.004,0.82235 0.21081,1.39341 0.625,1.71875 0.41418,0.32535 0.9997,0.48195 1.78125,0.46875 0.80673,0.0204 1.40912,-0.13376 1.8125,-0.4375 0.40337,-0.30373 0.62499,-0.87722 0.625,-1.75 l 0,-12 c -0.0264,-0.70109 0.13743,-1.24326 0.5,-1.65625 0.36253,-0.41298 1.05652,-0.64663 2.125,-0.65625 1.01804,0.01 1.74081,-0.12772 2.125,-0.40625 0.38415,-0.2785 0.55044,-0.75559 0.53125,-1.4375 0.001,-0.60384 -0.17952,-1.0496 -0.53125,-1.34375 -0.35177,-0.2941 -0.87466,-0.43868 -1.59375,-0.4375 l -11.25,0 z M 228.4375,130 c -0.17496,-0.004 -0.36499,0.0165 -0.5625,0.0312 -0.59546,-0.0384 -1.07742,0.0267 -1.5,0.21875 -0.4226,0.1921 -0.6683,0.74143 -0.6875,1.625 l 0,15.09375 c -0.007,0.95322 0.13973,1.57007 0.40625,1.875 0.26651,0.30494 0.71708,0.46392 1.34375,0.4375 0.65428,0.001 1.10248,-0.14337 1.375,-0.4375 0.2725,-0.29413 0.41464,-0.73989 0.40625,-1.34375 l 0,-7.34375 c -0.0144,-0.51023 0.0603,-0.95597 0.21875,-1.34375 0.15847,-0.38776 0.49578,-0.57333 1,-0.59375 0.35056,0.0276 0.64212,0.17464 0.90625,0.46875 0.2641,0.29414 0.47369,0.55196 0.59375,0.78125 l 5.125,8.65625 c 0.22087,0.40338 0.54616,0.70456 0.96875,0.90625 0.42257,0.20168 0.97921,0.3125 1.71875,0.3125 0.84756,-0.001 1.43545,-0.15782 1.75,-0.46875 0.31451,-0.31094 0.45429,-0.76874 0.4375,-1.375 l 0,-15.125 c 0.018,-0.95558 -0.0808,-1.58449 -0.34375,-1.90625 -0.26293,-0.32171 -0.77134,-0.46149 -1.53125,-0.4375 -0.57146,0.001 -0.99551,0.15783 -1.25,0.46875 -0.25453,0.31095 -0.37981,0.76875 -0.375,1.375 l 0,7.09375 c 0.006,0.67591 -0.0759,1.20122 -0.25,1.625 -0.17409,0.4238 -0.48007,0.64305 -0.90625,0.65625 -0.26412,0.042 -0.55084,-0.0448 -0.84375,-0.3125 -0.29293,-0.2677 -0.73391,-0.94958 -1.34375,-2.03125 -1.69284,-2.97586 -2.89473,-5.08808 -3.625,-6.34375 -0.73027,-1.25565 -1.32066,-2.00596 -1.75,-2.25 -0.32201,-0.183 -0.75636,-0.29996 -1.28125,-0.3125 z m -163.098346,0.0312 c -0.546241,2e-5 -0.953436,0.1494 -1.21875,0.4375 -0.265316,0.28815 -0.407452,0.70502 -0.40625,1.28125 l 0,15.375 c -0.0072,0.84757 0.108483,1.43546 0.375,1.75 0.266514,0.31452 0.717075,0.48556 1.34375,0.46875 l 4.5,0 c 3.834459,0.0264 6.629427,-0.7735 8.375,-2.375 1.745544,-1.60149 2.620143,-4.17241 2.59375,-7.71875 -0.01922,-2.95567 -0.869744,-5.22539 -2.53125,-6.8125 -1.661535,-1.58707 -4.020425,-2.38943 -7.09375,-2.40625 l -5.9375,0 z M 188,130.53125 c -0.43101,2e-5 -0.76106,0.11327 -0.96875,0.34375 -0.2077,0.23052 -0.3137,0.60152 -0.3125,1.0625 l 0,15.78125 c -0.012,0.56665 0.11329,0.96661 0.375,1.1875 0.26171,0.2209 0.72675,0.3221 1.40625,0.3125 0.37576,-0.001 0.67931,-0.11925 0.875,-0.34375 0.19569,-0.22449 0.28004,-0.56661 0.28125,-1 l 0,-8.6875 c -0.001,-1.06486 0.1048,-1.85036 0.3125,-2.375 0.20768,-0.52461 0.53776,-0.78244 0.96875,-0.78125 0.28932,0.002 0.55674,0.13015 0.78125,0.40625 0.22448,0.27613 0.38598,0.66649 0.53125,1.1875 l 2.78125,10.21875 c 0.18247,0.63988 0.45713,1.04707 0.8125,1.21875 0.35534,0.17167 0.74326,0.24157 1.15625,0.21875 0.54624,0.001 0.9583,-0.10481 1.28125,-0.3125 0.32293,-0.20769 0.54219,-0.53776 0.65625,-0.96875 l 2.65625,-9.84375 c 0.31331,-1.09486 0.63379,-1.73336 0.96875,-1.90625 0.33492,-0.17286 0.53971,-0.24511 0.59375,-0.1875 0.37573,-0.001 0.64804,0.28788 0.84375,0.8125 0.19565,0.52464 0.31128,1.31014 0.3125,2.375 l 0,8.625 c -2e-5,0.922 0.49398,1.40625 1.53125,1.40625 1.03723,1e-5 1.56249,-0.48425 1.5625,-1.40625 l 0,-15.78125 c 0,-1.03723 -0.45303,-1.56248 -1.375,-1.5625 l -2.875,0 c -0.57387,-0.001 -1.04607,0.10482 -1.375,0.3125 -0.32895,0.20771 -0.54341,0.53778 -0.65625,0.96875 l -2.40625,9.78125 c -0.2005,0.77675 -0.45345,1.36944 -0.71875,1.75 -0.26533,0.38057 -0.56171,0.56371 -0.90625,0.5625 -0.61466,-0.0552 -1.00503,-0.26968 -1.1875,-0.65625 -0.18249,-0.38657 -0.26921,-0.60102 -0.25,-0.65625 l -2.53125,-10.4375 c -0.2161,-0.74789 -0.48117,-1.19611 -0.8125,-1.375 -0.33136,-0.17886 -0.63254,-0.27999 -0.90625,-0.25 l -3.40625,0 z m -12.5625,2.15625 1.3125,0 c 1.44061,0.0132 2.52968,0.31204 3.25,0.9375 0.72032,0.62548 1.09373,1.48324 1.09375,2.5625 -2e-5,2.42026 -1.68901,3.62501 -5.03125,3.625 -1.19573,0.012 -2.02704,-0.18796 -2.53125,-0.59375 -0.50423,-0.40577 -0.76442,-1.09486 -0.75,-2.0625 l 0,-1.125 c -0.012,-1.24853 0.18797,-2.12557 0.59375,-2.625 0.40578,-0.49941 1.09487,-0.73794 2.0625,-0.71875 z M 157,132.75 c 1.77795,0.0432 3.16584,0.71786 4.1875,2 1.02162,1.28217 1.54207,2.93504 1.5625,4.9375 -0.0192,2.15615 -0.56856,3.82837 -1.625,5.0625 -1.05647,1.23414 -2.5118,1.88225 -4.375,1.90625 -1.64233,-0.0336 -2.96031,-0.69619 -3.96875,-1.96875 -1.00844,-1.27255 -1.5337,-2.95438 -1.5625,-5.0625 0.0348,-2.25218 0.59139,-3.96768 1.65625,-5.125 1.06486,-1.15727 2.44786,-1.74519 4.125,-1.75 z m -86.317096,0.4375 c 2.099702,0.0168 3.661042,0.59511 4.6875,1.75 1.026431,1.15491 1.534837,2.7837 1.53125,4.875 -0.0096,2.0289 -0.549346,3.59503 -1.625,4.6875 -1.075679,1.09248 -2.629779,1.64425 -4.65625,1.65625 -1.959259,1e-5 -2.937505,-0.79274 -2.9375,-2.40625 l 0,-7.6875 c -0.01561,-1.07806 0.203648,-1.82019 0.65625,-2.25 0.452591,-0.42977 1.235661,-0.64179 2.34375,-0.625 z"
       id="path3203"
       style="font-size:36px;font-style:normal;font-variant:normal;font-weight:normal;font-stretch:normal;text-align:start;line-height:110.00000238%;text-anchor:start;fill:#000000;fill-opacity:1;fill-rule:evenodd;stroke:none;font-family:BlurMedium" />
    <path
       d="m 71.337528,107.47366 0,-10.799857 c -0.02102,-2.531952 -0.735007,-4.235929 -2.141973,-5.111934 -1.406996,-0.87597 -3.380968,-1.283965 -5.921923,-1.223985 -2.82297,0.08702 -4.754943,0.597011 -5.795926,1.52998 -1.040989,0.933005 -1.532982,1.766993 -1.475981,2.501968 0.024,0.595508 0.245995,0.988502 0.665991,1.178985 0.419992,0.190511 0.893985,0.27751 1.421983,0.260997 0.96976,-0.02932 1.694194,-0.234649 2.173304,-0.615992 0.479098,-0.381314 0.942202,-0.762642 1.389315,-1.143986 0.447098,-0.381313 1.107533,-0.586643 1.981309,-0.615991 0.70348,0.009 1.294472,0.225013 1.772977,0.647991 0.478482,0.423009 0.727479,0.999001 0.746991,1.727978 0.01949,0.412508 -0.19951,0.811502 -0.656992,1.196984 -0.457505,0.385507 -1.270494,0.658503 -2.438968,0.81899 -2.902469,0.414005 -5.03544,1.187995 -6.398919,2.321972 -1.363483,1.13399 -2.038474,2.51997 -2.024973,4.15794 0.006,1.61399 0.533992,2.92197 1.58398,3.92395 1.049983,1.00199 2.585961,1.51798 4.60794,1.54798 1.186477,-0.048 2.161464,-0.23999 2.924963,-0.57599 0.763479,-0.33599 1.540469,-0.52799 2.33097,-0.57599 0.446981,0.027 0.902975,0.135 1.367982,0.32399 0.46498,0.189 1.064972,0.297 1.799977,0.324 0.622476,0.015 1.123469,-0.105 1.502981,-0.35999 0.379478,-0.255 0.574475,-0.73499 0.584992,-1.43999 l 0,0 z m -11.447853,-3.67195 c 0.09449,-1.00798 0.661485,-1.76397 1.700978,-2.26797 1.039478,-0.50398 1.984465,-0.75598 2.834964,-0.75599 0.64198,0.0135 1.103974,0.18451 1.385982,0.51299 0.281984,0.32851 0.419982,0.7335 0.413995,1.21499 -0.03901,0.96899 -0.429006,1.80298 -1.169986,2.50196 -0.741001,0.699 -1.598989,1.06499 -2.573966,1.09799 -0.800997,-0.0195 -1.430989,-0.25049 -1.889976,-0.69299 -0.459001,-0.44249 -0.692997,-0.97948 -0.701991,-1.61098 l 0,0 z M 79.817364,91.021876 c -0.403501,-0.03298 -0.892495,-0.164979 -1.466981,-0.395995 -0.574499,-0.230979 -1.405487,-0.362977 -2.492968,-0.395995 -1.058989,0.0045 -1.784979,0.247515 -2.177972,0.72899 -0.392997,0.481512 -0.578994,1.174503 -0.557992,2.078974 l 0,13.46383 c 0.0015,0.93899 0.178497,1.65298 0.530993,2.14197 0.352493,0.48899 0.871486,0.73499 1.55698,0.73799 l 1.439981,0 c 0.754485,-0.002 1.315477,-0.2325 1.682979,-0.69299 0.367488,-0.4605 0.550485,-1.14149 0.548993,-2.04298 l 0,-7.4159 c -7e-6,-0.835479 0.233989,-1.558469 0.70199,-2.168973 0.467985,-0.61048 1.169976,-1.063473 2.105973,-1.358982 0.949477,-0.269982 1.588468,-0.629977 1.916975,-1.079986 0.328484,-0.449979 0.481482,-1.09797 0.458995,-1.943975 0.0015,-0.685474 -0.145511,-1.204467 -0.440995,-1.556981 -0.295508,-0.352477 -0.748501,-0.529474 -1.358982,-0.530992 -0.507003,0.01802 -0.914998,0.09002 -1.223984,0.215997 -0.309005,0.126017 -0.717,0.198016 -1.223985,0.215998 l 0,0 z m 12.07409,0 c -0.403502,-0.03298 -0.892496,-0.164979 -1.466982,-0.395995 -0.574499,-0.230979 -1.405487,-0.362977 -2.492968,-0.395995 -1.058989,0.0045 -1.784979,0.247515 -2.177972,0.72899 -0.392997,0.481512 -0.578994,1.174503 -0.557992,2.078974 l 0,13.46383 c 0.0015,0.93899 0.178497,1.65298 0.530993,2.14197 0.352494,0.48899 0.871486,0.73499 1.55698,0.73799 l 1.439981,0 c 0.754485,-0.002 1.315477,-0.2325 1.682979,-0.69299 0.367488,-0.4605 0.550485,-1.14149 0.548993,-2.04298 l 0,-7.4159 c -7e-6,-0.835479 0.233989,-1.558469 0.70199,-2.168973 0.467985,-0.61048 1.169976,-1.063473 2.105973,-1.358982 0.949477,-0.269982 1.588468,-0.629977 1.916975,-1.079986 0.328484,-0.449979 0.481482,-1.09797 0.458995,-1.943975 0.0015,-0.685474 -0.145511,-1.204467 -0.440995,-1.556981 -0.295508,-0.352477 -0.748501,-0.529474 -1.358982,-0.530992 -0.507003,0.01802 -0.914997,0.09002 -1.223984,0.215997 -0.309005,0.126017 -0.717,0.198016 -1.223984,0.215998 l 0,0 z m 22.981946,7.631901 c 0.036,-0.558203 -0.14801,-1.505746 -0.55199,-2.84263 -0.40401,-1.336857 -1.244,-2.593729 -2.51997,-3.770618 -1.276,-1.176855 -3.20397,-1.804402 -5.78392,-1.882642 -2.42848,-0.03598 -4.53745,0.738009 -6.326921,2.321969 -1.789479,1.583995 -2.728466,4.193959 -2.816963,7.829904 0.0555,3.06746 0.934486,5.39243 2.636966,6.97491 1.702468,1.58248 3.895438,2.37747 6.578918,2.38497 2.69545,-0.111 4.70242,-0.69899 6.02092,-1.76398 1.31846,-1.06499 1.97546,-1.94097 1.97097,-2.62797 -0.03,-0.45599 -0.29401,-0.87598 -0.79199,-1.25998 -0.49801,-0.38399 -1.05,-0.58799 -1.65597,-0.61199 -0.85351,0.105 -1.6125,0.525 -2.27698,1.25998 -0.6645,0.73499 -1.72949,1.15499 -3.19495,1.25998 -0.975,-0.039 -1.83299,-0.39299 -2.57397,-1.06198 -0.741,-0.66899 -1.13099,-1.41898 -1.16999,-2.24997 0.002,-0.61349 0.2145,-1.07848 0.639,-1.39499 0.42448,-0.31648 1.05147,-0.47548 1.88097,-0.47699 l 5.83193,0 1.65598,0 c 0.85797,0.0165 1.48196,-0.12449 1.87197,-0.42299 0.38998,-0.29849 0.58197,-0.853484 0.57599,-1.664983 l 0,0 z m -12.16784,-2.447968 c 0.048,-0.662978 0.41999,-1.20897 1.11599,-1.63798 0.69598,-0.428979 1.42797,-0.650976 2.19597,-0.66599 0.89098,0.03002 1.64697,0.294011 2.26797,0.791989 0.62098,0.498008 0.94497,1.05 0.97199,1.655979 -0.002,0.504006 -0.30451,0.882001 -0.90899,1.133985 -0.60451,0.252008 -1.50149,0.378006 -2.69097,0.377996 -0.97349,-0.0015 -1.70848,-0.142487 -2.20497,-0.422995 -0.4965,-0.280484 -0.7455,-0.691479 -0.74699,-1.232984 l 0,0 z m 21.62699,-2.267971 c 1.14598,0.04502 2.05797,0.225013 2.73597,0.539993 0.67798,0.31501 1.37397,0.495008 2.08797,0.539993 0.53398,-0.02099 1.03197,-0.230983 1.49398,-0.629992 0.46198,-0.39898 0.70798,-0.860973 0.73799,-1.385982 -0.057,-0.749973 -0.771,-1.409964 -2.14197,-1.979974 -1.371,-0.569974 -3.05697,-0.86997 -5.05793,-0.899989 -2.02199,0.01202 -3.79196,0.546012 -5.30994,1.601979 -1.51798,1.056003 -2.31597,2.561982 -2.39397,4.517942 0.0375,1.493993 0.5565,2.645977 1.55698,3.455956 1.00049,0.809996 2.25747,1.385986 3.77096,1.727976 1.73097,0.381 3.03895,0.717 3.92395,1.00799 0.88497,0.291 1.32897,0.84299 1.33198,1.65598 -0.009,0.456 -0.24301,0.87599 -0.70199,1.25998 -0.45901,0.384 -1.089,0.588 -1.88998,0.61199 -1.57799,-0.075 -2.75997,-0.37499 -3.54595,-0.89999 -0.786,-0.52498 -1.64399,-0.82498 -2.57397,-0.89998 -0.53099,0.012 -1.01699,0.204 -1.45798,0.57599 -0.441,0.372 -0.67499,0.85199 -0.70199,1.43998 0.0225,0.71699 0.73349,1.47898 2.13297,2.28597 1.39948,0.80699 3.35245,1.24498 5.85893,1.31398 2.49595,-0.018 4.52392,-0.59399 6.08392,-1.72797 1.55996,-1.13399 2.36395,-2.71796 2.41197,-4.75194 0.015,-1.30948 -0.44702,-2.43446 -1.38599,-3.374959 -0.939,-0.940478 -2.44498,-1.615468 -4.51794,-2.024974 -1.64099,-0.298484 -2.82297,-0.61948 -3.54595,-0.962988 -0.723,-0.343483 -1.077,-0.862476 -1.06199,-1.556979 0.027,-0.50098 0.26099,-0.866975 0.70199,-1.097987 0.44099,-0.230982 0.92698,-0.34498 1.45798,-0.341995 l 0,0 z M 134.674,94.58583 c 0.2865,0.36001 0.48749,0.810003 0.60299,1.349982 0.1155,0.540005 0.1545,1.169997 0.117,1.889976 l 0,6.479912 c 0.001,1.76549 0.50249,3.09447 1.50298,3.98695 1.00048,0.89249 2.49146,1.33949 4.47294,1.34099 0.97048,-0.001 1.69347,-0.1965 2.16898,-0.585 0.47548,-0.38849 0.74885,-0.96308 0.71099,-1.71897 -0.0506,-1.01109 -0.50701,-1.69048 -1.25999,-2.04298 -0.753,-0.35249 -1.31699,-0.79948 -1.69197,-1.34098 -0.14401,-0.26549 -0.25201,-0.54449 -0.324,-0.83699 -0.072,-0.29249 -0.10801,-0.73348 -0.108,-1.32298 l 0,-4.175949 c -0.0105,-0.587981 -0.008,-1.049975 0.009,-1.385983 0.0165,-0.335982 0.10949,-0.689977 0.279,-1.061986 0.40348,-0.644976 0.96448,-1.10097 1.68298,-1.367982 0.71848,-0.266981 1.11747,-0.794974 1.19698,-1.58398 -0.075,-0.809971 -0.447,-1.349963 -1.11599,-1.619979 -0.669,-0.269978 -1.18499,-0.593973 -1.54798,-0.971987 -0.1785,-0.290976 -0.3075,-0.608972 -0.38699,-0.953989 -0.0795,-0.344975 -0.11851,-0.69897 -0.117,-1.061985 0.0435,-0.551971 -0.0975,-1.121963 -0.42299,-1.709979 -0.32551,-0.587969 -1.0965,-0.905964 -2.31297,-0.953987 -1.25099,0.05852 -2.04298,0.391519 -2.37597,0.998988 -0.333,0.607515 -0.477,1.138507 -0.432,1.592979 0.007,0.378016 -0.007,0.702011 -0.045,0.971987 -0.0375,0.270018 -0.1425,0.594013 -0.31499,0.971988 -0.216,0.349515 -0.612,0.73051 -1.18799,1.142985 -0.57599,0.412513 -0.89999,0.919506 -0.97199,1.52098 0.042,0.592509 0.282,1.063502 0.72,1.412981 0.43799,0.349511 0.82198,0.694507 1.15198,1.034988 l 0,0 z m 28.29102,4.067947 c 0.036,-0.558203 -0.14801,-1.505746 -0.55199,-2.84263 -0.40401,-1.336857 -1.244,-2.593729 -2.51997,-3.770618 -1.276,-1.176855 -3.20397,-1.804402 -5.78392,-1.882642 -2.42848,-0.03598 -4.53745,0.738009 -6.32692,2.321969 -1.78948,1.583995 -2.72847,4.193959 -2.81697,7.829904 0.0555,3.06746 0.93449,5.39243 2.63697,6.97491 1.70247,1.58248 3.89544,2.37747 6.57892,2.38497 2.69545,-0.111 4.70242,-0.69899 6.02092,-1.76398 1.31846,-1.06499 1.97545,-1.94097 1.97097,-2.62797 -0.03,-0.45599 -0.29401,-0.87598 -0.79199,-1.25998 -0.49801,-0.38399 -1.05,-0.58799 -1.65598,-0.61199 -0.8535,0.105 -1.61249,0.525 -2.27697,1.25998 -0.6645,0.73499 -1.72949,1.15499 -3.19496,1.25998 -0.97499,-0.039 -1.83298,-0.39299 -2.57396,-1.06198 -0.741,-0.66899 -1.13099,-1.41898 -1.16999,-2.24997 0.002,-0.61349 0.21449,-1.07848 0.639,-1.39499 0.42448,-0.31648 1.05147,-0.47548 1.88097,-0.47699 l 5.83193,0 1.65597,0 c 0.85798,0.0165 1.48197,-0.12449 1.87198,-0.42299 0.38998,-0.29849 0.58197,-0.853484 0.57599,-1.664983 l 0,0 z m -12.16784,-2.447968 c 0.048,-0.662978 0.41999,-1.20897 1.11598,-1.63798 0.69599,-0.428979 1.42798,-0.650976 2.19598,-0.66599 0.89097,0.03002 1.64696,0.294011 2.26797,0.791989 0.62098,0.498008 0.94497,1.05 0.97198,1.655979 -0.002,0.504006 -0.3045,0.882001 -0.90898,1.133985 -0.60451,0.252008 -1.5015,0.378006 -2.69097,0.377996 -0.9735,-0.0015 -1.70849,-0.142487 -2.20497,-0.422995 -0.4965,-0.280484 -0.7455,-0.691479 -0.74699,-1.232984 l 0,0 z m 25.71013,12.671841 c 0.52948,0.024 1.00047,0.11999 1.41298,0.28799 0.41248,0.168 1.04547,0.264 1.89898,0.288 0.82347,-0.001 1.42646,-0.1965 1.80897,-0.58499 0.38248,-0.3885 0.57148,-0.96149 0.567,-1.71898 l 0,-19.511751 c -2e-5,-1.871952 0.0894,-2.807939 -1.06258,-2.807964 l -1.43998,0 c -0.53401,0.01203 -0.92401,0.222022 -1.16999,0.629992 -0.24601,0.408018 -1.04941,0.94201 -1.07939,1.60198 l -0.072,1.727977 c -0.024,0.76951 -0.13801,1.390502 -0.342,1.862976 -0.20401,0.472513 -0.57,0.715509 -1.09798,0.728991 -0.60601,-0.02398 -1.194,-0.11998 -1.76398,-0.287996 -0.57,-0.16798 -1.37399,-0.263978 -2.41197,-0.287997 -1.06977,-0.02443 -2.1942,0.23246 -3.37329,0.770657 -1.1791,0.538232 -2.1862,1.504441 -3.02129,2.898629 -0.83511,1.394218 -1.27154,3.36308 -1.30932,5.906596 0.04,2.54264 0.48799,4.50527 1.34398,5.88792 0.85599,1.38265 1.87997,2.3373 3.07196,2.86396 1.19198,0.52666 2.31197,0.77733 3.35996,0.75199 1.24797,-0.042 2.13596,-0.20999 2.66397,-0.50399 0.52798,-0.294 1.19997,-0.46199 2.01597,-0.50399 l 0,0 z m -7.6319,-8.56789 c 0.09,-2.585959 0.62998,-4.271936 1.61998,-5.057939 0.98998,-0.785975 1.88996,-1.13997 2.69996,-1.061986 1.24498,-0.009 2.24696,0.459009 3.00596,1.403982 0.75898,0.945 1.14897,2.420979 1.16999,4.427943 0.006,1.90498 -0.34801,3.44096 -1.06199,4.60794 -0.714,1.16699 -1.82399,1.76698 -3.32995,1.79998 -1.053,0.024 -1.98899,-0.43799 -2.80797,-1.38599 -0.81899,-0.94798 -1.25099,-2.52596 -1.29598,-4.73393 l 0,0 z"
       transform="matrix(1.80916,0,0,1.80916,-37.8939,-71.4186)"
       id="flowRoot3255"
       style="font-size:36px;font-style:normal;font-variant:normal;font-weight:normal;font-stretch:normal;text-align:start;line-height:110.00000238%;text-anchor:start;fill:url(#linearGradient3277) #000000;fill-opacity:1;fill-rule:evenodd;stroke:none;font-family:BlurMedium" />
  </g>
</svg>
